<?xml version="1.0" encoding="UTF-8" standalone="no"?>
<!-- Generator: Adobe Illustrator 17.1.0, SVG Export Plug-In . SVG Version: 6.00 Build 0)  -->

<svg
   xmlns:dc="http://purl.org/dc/elements/1.1/"
   xmlns:cc="http://creativecommons.org/ns#"
   xmlns:rdf="http://www.w3.org/1999/02/22-rdf-syntax-ns#"
   xmlns:svg="http://www.w3.org/2000/svg"
   xmlns="http://www.w3.org/2000/svg"
   xmlns:sodipodi="http://sodipodi.sourceforge.net/DTD/sodipodi-0.dtd"
   xmlns:inkscape="http://www.inkscape.org/namespaces/inkscape"
   version="1.1"
   id="Capa_1"
   x="0px"
   y="0px"
   viewBox="0 0 47.999999 48.083812"
   xml:space="preserve"
   inkscape:version="0.91 r13725"
   sodipodi:docname="education.svg"
   width="48"
   height="48.083813"><metadata
     id="metadata39"><rdf:RDF><cc:Work
         rdf:about=""><dc:format>image/svg+xml</dc:format><dc:type
           rdf:resource="http://purl.org/dc/dcmitype/StillImage" /><dc:title></dc:title></cc:Work></rdf:RDF></metadata><defs
     id="defs37" /><sodipodi:namedview
     pagecolor="#ffffff"
     bordercolor="#666666"
     borderopacity="1"
     objecttolerance="10"
     gridtolerance="10"
     guidetolerance="10"
     inkscape:pageopacity="0"
     inkscape:pageshadow="2"
     inkscape:window-width="1920"
     inkscape:window-height="1018"
     id="namedview35"
     showgrid="false"
     fit-margin-top="0"
     fit-margin-left="0"
     fit-margin-right="0"
     fit-margin-bottom="0"
     inkscape:zoom="17.65667"
     inkscape:cx="24"
     inkscape:cy="24.041906"
     inkscape:window-x="-8"
     inkscape:window-y="-8"
     inkscape:window-maximized="1"
     inkscape:current-layer="Capa_1" /><g
     id="g3373"
     transform="scale(0.083269,0.083269)"><path
       id="path1329"
       style="fill:#2c5aa0;stroke:none;stroke-width:3.40799999"
       d="M 64.571,0.06355556 C 23.236,0.06355556 0,21.434556 0,65.099556 L 0,515.22256 c 0,40.844 20.894,62.229 62.192,62.229 l 452.024,0 c 41.307,0 62.229,-20.316 62.229,-62.229 l 0,-450.123004 c 0,-42.601 -20.922,-65.03600044 -63.522,-65.03600044 -0.003,0 -448.494,-0.143 -448.352,0 z"
       inkscape:connector-curvature="0" /><path
       style="fill:#ffffff"
       inkscape:connector-curvature="0"
       id="path3"
       d="m 474.17815,475.04809 c 0,6.58535 -5.33793,11.92566 -11.92566,11.92566 l -19.15022,0 -39.75301,0 -289.13046,0 c -22.467953,0 -40.745218,-18.27965 -40.745218,-40.74521 l 0,-44.73077 c 0,-22.46555 18.277265,-40.7452 40.745218,-40.7452 l 289.13046,0 39.75301,0 19.15022,0 c 6.58773,0 11.92566,5.3403 11.92566,11.92565 0,6.58536 -5.33793,11.92566 -11.92566,11.92566 l -7.22456,0 0,78.51855 7.22456,0 c 6.58773,0 11.92566,5.34031 11.92566,11.92566 z m 51.07761,-141.684 c 0,6.58535 -5.33793,11.92566 -11.92567,11.92566 l -17.93619,0 -40.96702,0 -239.86558,0 c -20.89376,0 -37.89021,-16.99645 -37.89021,-37.88782 l 0,-31.83435 c 0,-20.89138 16.99645,-37.88783 37.89021,-37.88783 l 239.86319,0 40.96703,0 17.93618,0 c 6.58774,0 11.92567,5.34031 11.92567,11.92566 0,6.58535 -5.33793,11.92566 -11.92567,11.92566 l -6.01053,0 0,59.90736 6.01053,0 c 6.59013,0 11.92806,5.33792 11.92806,11.92566 z m -310.69446,-11.92566 239.86319,0 29.04137,0 0,-59.90974 -29.04137,0 -239.86319,0 c -7.73976,0 -14.03889,6.29674 -14.03889,14.0365 l 0,31.83436 c 0.002,7.74213 6.29913,14.03888 14.03889,14.03888 z m 324.82159,-228.059169 -102.15282,0 -271.84065,0 -102.155206,0 c -6.587734,0 -11.925663,5.340309 -11.925663,11.925659 0,6.58535 5.337929,11.92566 11.925663,11.92566 l 10.239368,0 0,101.98349 c -5.459562,3.78997 -9.049194,10.09625 -9.049194,17.23257 0,11.5655 9.409347,20.97484 20.974857,20.97484 11.5655,0 20.974845,-9.40934 20.974845,-20.97484 0,-7.13632 -3.58962,-13.44022 -9.049182,-17.23257 l 0,-101.98349 56.138842,0 0,94.02429 c 0,6.58536 5.33793,11.92567 11.92567,11.92567 l 271.84065,0 c 6.58774,0 11.92566,-5.34031 11.92566,-11.92567 l 0,-94.02429 90.22716,0 c 6.58773,0 11.92566,-5.34031 11.92566,-11.92566 0,-6.58535 -5.33793,-11.925659 -11.92566,-11.925659 z" /></g><g
     id="g5"
     transform="translate(252.63441,-353.45342)" /><g
     id="g7"
     transform="translate(252.63441,-353.45342)" /><g
     id="g9"
     transform="translate(252.63441,-353.45342)" /><g
     id="g11"
     transform="translate(252.63441,-353.45342)" /><g
     id="g13"
     transform="translate(252.63441,-353.45342)" /><g
     id="g15"
     transform="translate(252.63441,-353.45342)" /><g
     id="g17"
     transform="translate(252.63441,-353.45342)" /><g
     id="g19"
     transform="translate(252.63441,-353.45342)" /><g
     id="g21"
     transform="translate(252.63441,-353.45342)" /><g
     id="g23"
     transform="translate(252.63441,-353.45342)" /><g
     id="g25"
     transform="translate(252.63441,-353.45342)" /><g
     id="g27"
     transform="translate(252.63441,-353.45342)" /><g
     id="g29"
     transform="translate(252.63441,-353.45342)" /><g
     id="g31"
     transform="translate(252.63441,-353.45342)" /><g
     id="g33"
     transform="translate(252.63441,-353.45342)" /></svg>