<?xml version="1.0" encoding="UTF-8" standalone="no"?>
<!-- Generator: Adobe Illustrator 15.0.2, SVG Export Plug-In . SVG Version: 6.00 Build 0)  -->

<svg
   xmlns:dc="http://purl.org/dc/elements/1.1/"
   xmlns:cc="http://creativecommons.org/ns#"
   xmlns:rdf="http://www.w3.org/1999/02/22-rdf-syntax-ns#"
   xmlns:svg="http://www.w3.org/2000/svg"
   xmlns="http://www.w3.org/2000/svg"
   xmlns:sodipodi="http://sodipodi.sourceforge.net/DTD/sodipodi-0.dtd"
   xmlns:inkscape="http://www.inkscape.org/namespaces/inkscape"
   version="1.1"
   id="Layer_1"
   x="0px"
   y="0px"
   width="48"
   height="48.083817"
   viewBox="0 0 48 48.083816"
   enable-background="new 0 0 512 409.6"
   xml:space="preserve"
   inkscape:version="0.48.4 r9939"
   sodipodi:docname="leisure2.svg"><metadata
     id="metadata9"><rdf:RDF><cc:Work
         rdf:about=""><dc:format>image/svg+xml</dc:format><dc:type
           rdf:resource="http://purl.org/dc/dcmitype/StillImage" /><dc:title /></cc:Work></rdf:RDF></metadata><defs
     id="defs7" /><sodipodi:namedview
     pagecolor="#ffffff"
     bordercolor="#666666"
     borderopacity="1"
     objecttolerance="10"
     gridtolerance="10"
     guidetolerance="10"
     inkscape:pageopacity="0"
     inkscape:pageshadow="2"
     inkscape:window-width="1855"
     inkscape:window-height="1056"
     id="namedview5"
     showgrid="false"
     fit-margin-top="0"
     fit-margin-left="0"
     fit-margin-right="0"
     fit-margin-bottom="0"
     inkscape:zoom="18.90449"
     inkscape:cx="24.056635"
     inkscape:cy="23.985273"
     inkscape:window-x="65"
     inkscape:window-y="24"
     inkscape:window-maximized="1"
     inkscape:current-layer="Layer_1"
     showguides="true"
     inkscape:guide-bbox="true" /><path
     inkscape:connector-curvature="0"
     d="m 5.4333984,0.06192803 c -3.4419241,0 -5.37676257,1.77954187 -5.37676257,5.41548277 l 0,37.4812932 c 0,3.401039 1.73982247,5.181747 5.17866567,5.181747 l 37.6395865,0 c 3.439593,0 5.181747,-1.691693 5.181747,-5.181747 l 0,-37.4812932 c 0,-3.5473427 -1.742154,-5.41548277 -5.289414,-5.41548277 -2.5e-4,0 -37.3456468,-0.01190747 -37.3338226,0 z"
     style="fill:#dbb400;fill-opacity:1;stroke:none"
     id="path1329" /><path
     d="m 41.0729,24.083916 c 0,-2.355281 1.907821,-4.2631 4.2631,-4.2631 l 0,-8.526199 c 0,-2.3552799 -1.907737,-4.2631005 -4.2631,-4.2631005 l -34.1048001,0 c -2.3552793,0 -4.2417843,1.9078206 -4.2417843,4.2631005 l -0.010907,8.526199 c 2.3558624,0.0104 4.2526919,1.918228 4.2526919,4.2631 0,2.355362 -1.9078204,4.2631 -4.2526919,4.2631 L 2.705,36.873216 c 0,2.355362 1.9078205,4.2631 4.2630998,4.2631 l 34.1048002,0 c 2.355363,0 4.2631,-1.907738 4.2631,-4.263017 l 0,-8.526283 c -2.355279,0 -4.2631,-1.907738 -4.2631,-4.2631 z M 31.651616,34.31494 24.0205,29.412791 l -7.631115,4.902149 2.30224,-8.770747 -7.012882,-5.733787 9.048679,-0.532803 3.293078,-8.409215 3.293079,8.409131 9.048679,0.532805 -7.012883,5.733869 2.302241,8.770747 z"
     id="path3"
     inkscape:connector-curvature="0"
     style="fill:#ffffff" /></svg>