<?xml version="1.0" encoding="UTF-8" standalone="no"?>
<!-- Generator: Adobe Illustrator 15.0.2, SVG Export Plug-In . SVG Version: 6.00 Build 0)  -->

<svg
   xmlns:dc="http://purl.org/dc/elements/1.1/"
   xmlns:cc="http://creativecommons.org/ns#"
   xmlns:rdf="http://www.w3.org/1999/02/22-rdf-syntax-ns#"
   xmlns:svg="http://www.w3.org/2000/svg"
   xmlns="http://www.w3.org/2000/svg"
   xmlns:sodipodi="http://sodipodi.sourceforge.net/DTD/sodipodi-0.dtd"
   xmlns:inkscape="http://www.inkscape.org/namespaces/inkscape"
   version="1.1"
   id="Layer_1"
   x="0px"
   y="0px"
   width="48"
   height="48"
   viewBox="0 0 48 48"
   enable-background="new 0 0 512 512"
   xml:space="preserve"
   inkscape:version="0.48.4 r9939"
   sodipodi:docname="medical.svg"><metadata
     id="metadata9"><rdf:RDF><cc:Work
         rdf:about=""><dc:format>image/svg+xml</dc:format><dc:type
           rdf:resource="http://purl.org/dc/dcmitype/StillImage" /><dc:title /></cc:Work></rdf:RDF></metadata><defs
     id="defs7" /><sodipodi:namedview
     pagecolor="#ffffff"
     bordercolor="#666666"
     borderopacity="1"
     objecttolerance="10"
     gridtolerance="10"
     guidetolerance="10"
     inkscape:pageopacity="0"
     inkscape:pageshadow="2"
     inkscape:window-width="1855"
     inkscape:window-height="1056"
     id="namedview5"
     showgrid="false"
     fit-margin-top="0"
     fit-margin-left="0"
     fit-margin-right="0"
     fit-margin-bottom="0"
     inkscape:zoom="17.6875"
     inkscape:cx="9.2390188"
     inkscape:cy="22.902348"
     inkscape:window-x="65"
     inkscape:window-y="24"
     inkscape:window-maximized="1"
     inkscape:current-layer="Layer_1" /><path
     d="m 42.683863,0.07374271 -37.3333135,0 c -2.9466563,0 -5.3066251,2.38668999 -5.3066251,5.33333999 L 0.0172056,42.740403 c 0,2.94665 2.3866876,5.33334 5.3333439,5.33334 l 37.3334065,0 c 2.946563,0 5.33325,-2.38669 5.33325,-5.33334 l 0,-37.3333203 c 0,-2.94665 -2.386687,-5.33333999 -5.333343,-5.33333999 z m -2.666625,29.33334029 -10.666688,0 0,10.66669 -10.666688,0 0,-10.66669 -10.6666874,0 0,-10.66668 10.6666874,0 0,-10.6666903 10.666594,0 0,10.6666903 10.666688,0 0,10.66668 z"
     id="path3"
     style="fill:#b80000;fill-opacity:1"
     inkscape:connector-curvature="0" /><path
     style="fill:#ffffff;fill-opacity:1;stroke:none"
     d="m 18.723414,34.725921 0,-5.342757 -5.342757,0 -5.3427557,0 0,-5.314487 0,-5.314488 5.3427557,0 5.342757,0 0,-5.314488 0,-5.3144872 5.286219,0 5.286219,0 0,5.3144872 0,5.314488 5.342756,0 5.342756,0 0,5.314488 0,5.314487 -5.342756,0 -5.342756,0 0,5.342757 0,5.342756 -5.286219,0 -5.286219,0 0,-5.342756 z"
     id="path2984"
     inkscape:connector-curvature="0" /></svg>