<?xml version="1.0" encoding="UTF-8" standalone="no"?>
<svg
   xmlns:dc="http://purl.org/dc/elements/1.1/"
   xmlns:cc="http://creativecommons.org/ns#"
   xmlns:rdf="http://www.w3.org/1999/02/22-rdf-syntax-ns#"
   xmlns:svg="http://www.w3.org/2000/svg"
   xmlns="http://www.w3.org/2000/svg"
   xmlns:sodipodi="http://sodipodi.sourceforge.net/DTD/sodipodi-0.dtd"
   xmlns:inkscape="http://www.inkscape.org/namespaces/inkscape"
   version="1.0"
   width="180"
   height="185"
   id="svg2"
   sodipodi:version="0.32"
   inkscape:version="0.47 r22583"
   sodipodi:docname="Symbol_star5.svg"
   inkscape:output_extension="org.inkscape.output.svg.inkscape">
  <metadata
     id="metadata2419">
    <rdf:RDF>
      <cc:Work
         rdf:about="">
        <dc:format>image/svg+xml</dc:format>
        <dc:type
           rdf:resource="http://purl.org/dc/dcmitype/StillImage" />
      </cc:Work>
    </rdf:RDF>
  </metadata>
  <defs
     id="defs2417">
    <inkscape:perspective
       sodipodi:type="inkscape:persp3d"
       inkscape:vp_x="0 : 92.5 : 1"
       inkscape:vp_y="0 : 1000 : 0"
       inkscape:vp_z="180 : 92.5 : 1"
       inkscape:persp3d-origin="90 : 61.666667 : 1"
       id="perspective2421" />
  </defs>
  <sodipodi:namedview
     inkscape:window-height="744"
     inkscape:window-width="1278"
     inkscape:pageshadow="2"
     inkscape:pageopacity="0.0"
     guidetolerance="10.0"
     gridtolerance="10.0"
     objecttolerance="10.0"
     borderopacity="1.0"
     bordercolor="#666666"
     pagecolor="#ffffff"
     id="base"
     showgrid="false"
     inkscape:zoom="2.4972973"
     inkscape:cx="18.722944"
     inkscape:cy="92.5"
     inkscape:window-x="0"
     inkscape:window-y="0"
     inkscape:current-layer="svg2"
     inkscape:window-maximized="0" />
  <path
     d="M 164.07,82.2 C 170.8,130.13 140.4,174 96.2,180.3 C 51.9,186.5 10.6,152.7 3.93,104.79 C -2.79,56.87 27.6,12.98 71.843612,6.7 C 116.1,0.5 157.4,34.3 164,82.21 L 164.07,82.2 z"
     style="fill-opacity:0.2"
     id="1" />
  <path
     d="M 176.07,80.2 C 182.8,128 152.4,172.03 108.16,178.26 C 63.9,184.5 22.6,150.7 15.9,102.79 C 9.22,54.9 39.6,10.9 83.8,4.7 C 128,-1.5 169,32.3 176,80.2 L 176.07,80.2 z"
     style="fill:#e96534;fill-opacity:1"
     id="2" />
  <path
     d="M 160.057,82.470048 C 165.43,120.8 141.1,155.9 105.7,160.9 C 70.35,165.89 37.3,138.9 31.9,100.5 C 26.6,62.2 50.9,27 86.3,22 C 121.7,17.1 154.7,44 160.057,82.5 L 160.057,82.5 L 160.057,82.470048 z"
     style="fill:#ffaa66;fill-opacity:1"
     id="3" />
  <path
     d="M 136.87144,136.97048 L 100.62911,122.64303 L 69.79586,146.56668 L 70.472693,105.14176 L 39.283242,80.335171 L 75.943883,69.060612 L 87.50099,29.805646 L 109.48167,64.262512 L 147.81381,64.80819 L 124.73798,97.378264 L 136.87144,136.97048 z"
     style="fill:#e96534;fill-opacity:1"
     id="4" />
  <path
     style="fill:none"
     d="M 90.806336,178.48166 C 60.663785,175.61731 33.421713,154.11832 21.645779,123.90129 16.969282,111.9014 14.980133,100.04585 15.392089,86.628569 16.469046,51.552408 37.139912,20.847227 67.532703,9.1771974 c 14.091446,-5.4107438 30.378121,-6.38133 44.999617,-2.681702 25.88003,6.5483346 48.05082,27.1371776 58.05113,53.9090066 2.26834,6.072577 3.56242,10.752761 4.92596,17.815272 0.81907,4.242386 0.92504,5.980165 0.92693,15.201222 0.002,9.690854 -0.0732,10.799164 -1.08619,16.017314 -4.27709,22.03135 -14.65299,39.84707 -30.74092,52.78305 -14.89426,11.97617 -34.98629,18.04838 -53.802894,16.2603 l 0,0 z m 17.913954,-17.9758 c 6.10148,-1.25543 10.44517,-2.75147 15.68627,-5.40259 10.58384,-5.35367 18.96273,-13.00213 25.55068,-23.32329 7.99288,-12.52222 12.07064,-29.30436 10.74867,-44.236398 C 159.02122,68.514586 152.09048,53.065064 139.6205,40.541469 128.33782,29.210283 114.7835,22.84322 99.169913,21.540035 76.772668,19.670654 55.150521,30.788505 42.297742,50.783029 c -8.067558,12.55036 -12.369601,29.852993 -11.069293,44.52023 0.97449,10.992071 3.397378,19.832331 7.883879,28.765481 3.718717,7.40441 7.755163,12.87954 14.011816,19.00594 10.155469,9.94405 21.995365,15.87339 36.010216,18.0337 4.929994,0.75993 14.37668,0.46932 19.58593,-0.60252 z"
     id="path2815" />
  <path
     style="fill:none"
     d="M 90.806336,178.48166 C 60.663785,175.61731 33.421713,154.11832 21.645779,123.90129 16.969282,111.9014 14.980133,100.04585 15.392089,86.628569 16.469046,51.552408 37.139912,20.847227 67.532703,9.1771974 c 14.091446,-5.4107438 30.378121,-6.38133 44.999617,-2.681702 25.88003,6.5483346 48.05082,27.1371776 58.05113,53.9090066 2.26834,6.072577 3.56242,10.752761 4.92596,17.815272 0.81907,4.242386 0.92504,5.980165 0.92693,15.201222 0.002,9.690854 -0.0732,10.799164 -1.08619,16.017314 -4.27709,22.03135 -14.65299,39.84707 -30.74092,52.78305 -14.89426,11.97617 -34.98629,18.04838 -53.802894,16.2603 l 0,0 z m 17.913954,-17.9758 c 6.10148,-1.25543 10.44517,-2.75147 15.68627,-5.40259 10.58384,-5.35367 18.96273,-13.00213 25.55068,-23.32329 7.99288,-12.52222 12.07064,-29.30436 10.74867,-44.236398 C 159.02122,68.514586 152.09048,53.065064 139.6205,40.541469 128.33782,29.210283 114.7835,22.84322 99.169913,21.540035 76.772668,19.670654 55.150521,30.788505 42.297742,50.783029 c -8.067558,12.55036 -12.369601,29.852993 -11.069293,44.52023 0.97449,10.992071 3.397378,19.832331 7.883879,28.765481 3.718717,7.40441 7.755163,12.87954 14.011816,19.00594 10.155469,9.94405 21.995365,15.87339 36.010216,18.0337 4.929994,0.75993 14.37668,0.46932 19.58593,-0.60252 z"
     id="path2817" />
  <path
     style="fill:none"
     d="M 70.341609,125.327 70.637884,104.97652 55.362861,92.820963 C 46.961598,86.135407 40.227084,80.537964 40.397274,80.382196 c 0.17019,-0.155765 8.14791,-2.676798 17.728267,-5.602293 9.580357,-2.925495 17.571382,-5.450399 17.757833,-5.610897 0.186451,-0.160498 2.847124,-8.824654 5.912605,-19.253679 3.065482,-10.429025 5.617989,-19.103417 5.67224,-19.276427 0.05425,-0.173009 4.947505,7.305075 10.873904,16.617966 5.926397,9.31289 10.819487,16.992527 10.873537,17.065859 0.054,0.07333 8.66858,0.253527 19.14341,0.400433 l 19.04514,0.267102 -11.45424,16.162805 -11.45424,16.162805 5.98832,19.47572 c 3.29359,10.71165 5.95149,19.52861 5.90645,19.59324 -0.045,0.0646 -8.12078,-3.0571 -17.94611,-6.93718 l -17.86423,-7.0547 -15.007186,11.64227 c -8.253949,6.40325 -15.124284,11.64227 -15.26741,11.64227 -0.143127,0 -0.126907,-9.15772 0.03605,-20.35049 l -2e-6,0 z"
     id="path2819" />
  <path
     style="fill:none"
     d="M 70.341609,125.327 70.637884,104.97652 55.362861,92.820963 C 46.961598,86.135407 40.227084,80.537964 40.397274,80.382196 c 0.17019,-0.155765 8.14791,-2.676798 17.728267,-5.602293 9.580357,-2.925495 17.571382,-5.450399 17.757833,-5.610897 0.186451,-0.160498 2.847124,-8.824654 5.912605,-19.253679 3.065482,-10.429025 5.617989,-19.103417 5.67224,-19.276427 0.05425,-0.173009 4.947505,7.305075 10.873904,16.617966 5.926397,9.31289 10.819487,16.992527 10.873537,17.065859 0.054,0.07333 8.66858,0.253527 19.14341,0.400433 l 19.04514,0.267102 -11.45424,16.162805 -11.45424,16.162805 5.98832,19.47572 c 3.29359,10.71165 5.95149,19.52861 5.90645,19.59324 -0.045,0.0646 -8.12078,-3.0571 -17.94611,-6.93718 l -17.86423,-7.0547 -15.007186,11.64227 c -8.253949,6.40325 -15.124284,11.64227 -15.26741,11.64227 -0.143127,0 -0.126907,-9.15772 0.03605,-20.35049 l -2e-6,0 z"
     id="path2821" />
  <path
     style="fill:none"
     d="M 70.341609,125.327 70.637884,104.97652 55.362861,92.820963 C 46.961598,86.135407 40.227084,80.537964 40.397274,80.382196 c 0.17019,-0.155765 8.14791,-2.676798 17.728267,-5.602293 9.580357,-2.925495 17.571382,-5.450399 17.757833,-5.610897 0.186451,-0.160498 2.847124,-8.824654 5.912605,-19.253679 3.065482,-10.429025 5.617989,-19.103417 5.67224,-19.276427 0.05425,-0.173009 4.947505,7.305075 10.873904,16.617966 5.926397,9.31289 10.819487,16.992527 10.873537,17.065859 0.054,0.07333 8.66858,0.253527 19.14341,0.400433 l 19.04514,0.267102 -11.45424,16.162805 -11.45424,16.162805 5.98832,19.47572 c 3.29359,10.71165 5.95149,19.52861 5.90645,19.59324 -0.045,0.0646 -8.12078,-3.0571 -17.94611,-6.93718 l -17.86423,-7.0547 -15.007186,11.64227 c -8.253949,6.40325 -15.124284,11.64227 -15.26741,11.64227 -0.143127,0 -0.126907,-9.15772 0.03605,-20.35049 l -2e-6,0 z"
     id="path2823" />
</svg>
