<?xml version="1.0" encoding="UTF-8" standalone="no"?>
<!-- Generator: Adobe Illustrator 15.0.2, SVG Export Plug-In . SVG Version: 6.00 Build 0)  -->

<svg
   xmlns:dc="http://purl.org/dc/elements/1.1/"
   xmlns:cc="http://creativecommons.org/ns#"
   xmlns:rdf="http://www.w3.org/1999/02/22-rdf-syntax-ns#"
   xmlns:svg="http://www.w3.org/2000/svg"
   xmlns="http://www.w3.org/2000/svg"
   xmlns:sodipodi="http://sodipodi.sourceforge.net/DTD/sodipodi-0.dtd"
   xmlns:inkscape="http://www.inkscape.org/namespaces/inkscape"
   version="1.1"
   id="Layer_1"
   x="0px"
   y="0px"
   width="48"
   height="48.083813"
   viewBox="0 0 48 48.083813"
   enable-background="new 0 0 512 732"
   xml:space="preserve"
   inkscape:version="0.48.4 r9939"
   sodipodi:docname="retail.svg"><metadata
     id="metadata9"><rdf:RDF><cc:Work
         rdf:about=""><dc:format>image/svg+xml</dc:format><dc:type
           rdf:resource="http://purl.org/dc/dcmitype/StillImage" /><dc:title /></cc:Work></rdf:RDF></metadata><defs
     id="defs7" /><sodipodi:namedview
     pagecolor="#ffffff"
     bordercolor="#666666"
     borderopacity="1"
     objecttolerance="10"
     gridtolerance="10"
     guidetolerance="10"
     inkscape:pageopacity="0"
     inkscape:pageshadow="2"
     inkscape:window-width="1855"
     inkscape:window-height="1056"
     id="namedview5"
     showgrid="false"
     fit-margin-top="0"
     fit-margin-left="0"
     fit-margin-right="0"
     fit-margin-bottom="0"
     inkscape:zoom="6.2425756"
     inkscape:cx="-40.922099"
     inkscape:cy="9.8685714"
     inkscape:window-x="65"
     inkscape:window-y="24"
     inkscape:window-maximized="1"
     inkscape:current-layer="Layer_1" /><path
     inkscape:connector-curvature="0"
     d="M 5.3767626,0.00529221 C 1.9348385,0.00529221 0,1.7848346 0,5.4207755 L 0,42.902067 c 0,3.401039 1.7398225,5.181747 5.1786656,5.181747 l 37.6395874,0 C 46.257846,48.083814 48,46.392121 48,42.902067 L 48,5.4207755 c 0,-3.5473427 -1.742154,-5.41548329 -5.289414,-5.41548329 -2.5e-4,0 -37.3456476,-0.01190747 -37.3338234,0 z"
     style="fill:#aa4400;stroke:none"
     id="path1329" /><path
     d="m 15.354783,44.737197 -5.9152831,-4.322708 0,-27.528822 4.5502181,0 -0.07599,-2.578609 c 0,-3.9787678 3.225593,-7.2043607 7.204816,-7.2043607 2.97408,0 5.527378,1.8023417 6.626711,4.3737841 3.572604,0.426583 6.265424,3.3149466 6.265424,7.0017616 l 0,2.047599 1.592576,0.910044 2.957642,0 0,27.301311 -23.206115,0 z m -2.881653,-25.424346 2.388865,-1.488149 0,24.409875 0.492788,0.492333 0,-25.215036 4.095197,-0.07599 0,-2.730132 -8.190393,0 1.213543,4.607097 z m 9.706981,-4.607097 0,2.730132 9.100437,0 0,-1.137555 -1.820087,-1.592577 -7.28035,0 z m 6.370307,-1.820087 2.275108,0 c -0.433692,-1.228218 -1.046891,-1.840962 -2.275108,-2.275109 l 0,2.275109 z m -11.75458,-2.578609 -0.07599,2.578609 2.957642,0 c 0.516792,-2.546189 2.520366,-4.3013784 4.951889,-5.1012501 -0.785197,-1.0900046 -2.065344,-1.800066 -3.510891,-1.800066 -2.387501,0 -4.322651,1.9356063 -4.322651,4.3227071 z m 8.796937,2.578609 0,-2.275109 c -1.228218,0.434147 -2.068473,1.046891 -2.50262,2.275109 l 2.50262,0 z"
     id="path3"
     inkscape:connector-curvature="0"
     style="fill:#ffffff" /></svg>