<?xml version="1.0" encoding="UTF-8" standalone="no"?>
<svg
   xmlns:dc="http://purl.org/dc/elements/1.1/"
   xmlns:cc="http://creativecommons.org/ns#"
   xmlns:rdf="http://www.w3.org/1999/02/22-rdf-syntax-ns#"
   xmlns:svg="http://www.w3.org/2000/svg"
   xmlns="http://www.w3.org/2000/svg"
   xmlns:sodipodi="http://sodipodi.sourceforge.net/DTD/sodipodi-0.dtd"
   xmlns:inkscape="http://www.inkscape.org/namespaces/inkscape"
   height="48.083813"
   width="48"
   id="svg2"
   version="1.1"
   inkscape:version="0.91 r13725"
   sodipodi:docname="search.svg">
  <metadata
     id="metadata10">
    <rdf:RDF>
      <cc:Work
         rdf:about="">
        <dc:format>image/svg+xml</dc:format>
        <dc:type
           rdf:resource="http://purl.org/dc/dcmitype/StillImage" />
        <dc:title></dc:title>
      </cc:Work>
    </rdf:RDF>
  </metadata>
  <defs
     id="defs8" />
  <sodipodi:namedview
     pagecolor="#ffffff"
     bordercolor="#666666"
     borderopacity="1"
     objecttolerance="10"
     gridtolerance="10"
     guidetolerance="10"
     inkscape:pageopacity="0"
     inkscape:pageshadow="2"
     inkscape:window-width="1920"
     inkscape:window-height="1018"
     id="namedview6"
     showgrid="false"
     fit-margin-top="0"
     fit-margin-left="0"
     fit-margin-right="0"
     fit-margin-bottom="0"
     inkscape:zoom="17.65667"
     inkscape:cx="24"
     inkscape:cy="24.041906"
     inkscape:window-x="-8"
     inkscape:window-y="-8"
     inkscape:window-maximized="1"
     inkscape:current-layer="svg2" />
  <g
     id="g4144"
     transform="matrix(0.083269,0,0,0.083269,-8.8457075,-15.25958)">
    <path
       id="path1329"
       style="fill:#483e37;stroke:none;stroke-width:3.40799999"
       d="m 170.8015,183.31999 c -41.335,0 -64.571,21.371 -64.571,65.036 l 0,450.123 c 0,40.844 20.894,62.229 62.192,62.229 l 452.024,0 c 41.30702,0 62.22902,-20.316 62.22902,-62.229 l 0,-450.123 c 0,-42.601 -20.922,-65.036 -63.52202,-65.036 -0.003,0 -448.494,-0.143 -448.352,0 z"
       inkscape:connector-curvature="0" />
    <path
       style="fill:#ffffff"
       inkscape:connector-curvature="0"
       id="path4"
       d="m 152.98275,458.12067 q -12.83802,-48.48402 0,-96.83146 12.83803,-48.34745 48.89375,-84.13002 27.04179,-27.0418 61.59519,-41.10899 34.5534,-14.06719 71.42857,-14.06719 36.60202,0 71.15542,14.06719 34.5534,14.06719 61.59519,41.10899 28.95384,28.95383 42.88446,66.51188 13.93062,37.55804 11.74543,76.61841 -2.1852,39.06036 -19.93991,74.02349 15.84267,4.64354 27.31494,16.11582 l 97.51434,97.24119 q 19.39361,19.66675 19.39361,47.39142 0,27.72466 -19.39361,47.39142 -19.66676,19.66676 -47.528,19.66676 -27.86124,0 -47.52799,-19.66676 l -96.96805,-96.96804 q -12.01857,-11.47227 -16.66211,-27.86124 -39.06037,19.93991 -83.58372,19.93991 -36.87517,0 -71.42857,-13.93062 -34.5534,-13.93062 -61.59519,-40.97241 -36.05572,-36.05573 -48.89375,-84.53975 z m 56.81508,-48.07429 q 0,52.03496 36.32887,88.36383 36.60202,36.60202 88.77356,36.60202 51.62524,0 88.22726,-36.60202 36.60202,-36.60202 36.60202,-88.50041 0,-51.89839 -36.60202,-88.50041 -37.14832,-36.60202 -88.22726,-36.60202 -51.62524,0 -88.77356,36.60202 -36.32887,36.60202 -36.32887,88.63699 z" />
  </g>
</svg>
